<?xml version="1.0" encoding="iso-8859-1"?>
<!-- Uploaded to: SVG Repo, www.svgrepo.com, Generator: SVG Repo Mixer Tools -->
<svg height="800px" width="800px" version="1.1" id="Layer_1" xmlns="http://www.w3.org/2000/svg" xmlns:xlink="http://www.w3.org/1999/xlink" 
	 viewBox="0 0 439.978 439.978" xml:space="preserve">
<g transform="translate(0 -1020.36)" shape-rendering="auto" image-rendering="auto" color-rendering="auto" color-interpolation="sRGB">
	<path style="fill:#5A3392;" d="M365.787,1261.886c-13.934-6.496-30.707-0.367-37.205,13.584
		c-6.498,13.934-0.351,30.709,13.583,37.205l57.992,27.047c13.934,6.496,30.707,0.48,37.205-13.465
		c6.498-13.934,0.472-30.828-13.465-37.322L365.787,1261.886z"/>
	<path style="fill:#EE746C;" d="M359.055,1276.415l57.992,27.049c6.149,2.865,8.774,9.793,5.906,15.943
		c-2.868,6.15-9.912,8.656-16.063,5.787l-57.992-27.049c-6.15-2.865-8.656-9.793-5.787-15.943
		C345.979,1276.052,352.904,1273.546,359.055,1276.415L359.055,1276.415z"/>
	<g>
		<path style="fill:#5A3392;" d="M110.079,1049.169c-25.14,3.262-49.633,13.902-69.449,29.174
			c-13.577,10.465-23.773,24.852-30.591,39.803C2.967,1133.657,0,1150.802,0,1167.398c0,16.855,3.878,33.57,9.921,48.898
			c12.728,31.988,33.71,58.457,70.866,68.979c14.223,4.969,27.672,3.996,35.787,8.504c7.945,4.408,14.417,11.994,21.378,20.551
			c6.961,8.557,14.351,18.021,24.921,25.039c11.099,7.367,27.655,14.266,41.811,19.605s25.748,8.977,25.748,8.977
			c4.151,1.514,8.744-0.623,10.259-4.773s-0.623-8.744-4.774-10.258c-0.211-0.078-0.425-0.146-0.642-0.205
			c0,0-11.326-3.568-25.039-8.74c-13.713-5.17-29.907-12.127-38.504-17.834c-7.716-5.121-14.292-13.26-21.378-21.969
			c-7.086-8.711-14.712-18.074-25.984-24.332c-14.163-7.865-29.071-6.178-38.74-9.686c-0.155-0.086-0.312-0.166-0.472-0.24
			c-32.076-9.082-48.655-30.127-60.354-59.527c-5.442-13.803-8.858-28.613-8.858-42.992c0-14.635,2.813-29.637,8.74-42.639
			c5.93-13.004,14.652-25.318,25.63-33.779c17.586-13.553,39.752-23.129,61.772-25.984c19.874-2.576,41.464,2.613,62.244,8.977
			c19.174,5.871,37.574,14.945,53.858,26.457c13.891,9.816,26.864,21.072,35.433,34.488c8.754,13.705,14.292,30.066,16.417,46.418
			c0.807,6.205-0.417,13.43-2.008,21.496c-1.588,8.066-3.472,17.063-1.89,26.811c1.774,10.934,5.536,22.9,14.055,32.125
			c11.989,12.982,27.697,15.33,40.157,21.732c3.932,2.049,8.782,0.523,10.831-3.408c2.05-3.934,0.523-8.783-3.409-10.832
			c-0.033-0.018-0.066-0.033-0.099-0.051c-15.203-7.811-28.353-10.258-35.787-18.307c-5.259-5.695-8.442-14.746-9.921-23.859
			c-0.99-6.1,0.2-13.15,1.772-21.141c1.573-7.99,3.507-16.857,2.244-26.574c-2.41-18.543-8.712-37.086-18.898-53.031
			c-10.267-16.076-24.793-28.535-39.567-38.977c-17.708-12.518-37.761-22.322-58.583-28.701
			c-21.379-6.545-44.946-12.547-68.858-9.449L110.079,1049.169z"/>
		<path style="fill:#5A3392;" d="M265.276,1348.107c-13.314-7.686-30.463-3.041-38.15,10.275
			c-7.687,13.314-3.158,30.582,10.158,38.27l55.512,32.008c13.314,7.686,30.463,3.041,38.15-10.277
			c7.687-13.314,3.157-30.58-10.157-38.268L265.276,1348.107z"/>
	</g>
	<path style="fill:#EE746C;" d="M257.362,1361.927l55.394,32.008c5.877,3.393,7.763,10.539,4.37,16.418
		c-3.393,5.877-10.541,7.764-16.417,4.371l-55.394-32.008c-5.877-3.393-7.763-10.422-4.37-16.299
		c3.393-5.877,10.54-7.881,16.417-4.486L257.362,1361.927z"/>
	<path style="fill:#FB9761;" d="M359.055,1276.415l57.992,27.049c6.149,2.865,8.774,9.793,5.906,15.943
		c-2.868,6.15-9.912,8.656-16.063,5.787l-57.992-27.049c-6.15-2.865-8.656-9.793-5.787-15.943
		C345.979,1276.052,352.904,1273.546,359.055,1276.415L359.055,1276.415z"/>
	<g>
		<path style="fill:#FFFFFF;" d="M288.083,1392.679c-2.207,0.107-3.908,1.984-3.801,4.191c0.065,1.342,0.801,2.561,1.957,3.246
			l11.75,7.125c1.89,1.148,4.353,0.545,5.501-1.346c1.148-1.889,0.546-4.352-1.345-5.5l-11.75-7.125
			C289.702,1392.843,288.896,1392.636,288.083,1392.679z"/>
		<path style="fill:#FFFFFF;" d="M394.583,1304.835c-2.209-0.031-4.025,1.734-4.057,3.943c-0.024,1.66,0.982,3.164,2.526,3.775
			l12.688,5.313c1.984,0.971,4.38,0.15,5.352-1.834c0.971-1.984,0.15-4.381-1.834-5.352c-0.148-0.072-0.3-0.137-0.456-0.189
			l-12.656-5.313c-0.492-0.221-1.023-0.342-1.563-0.352V1304.835z"/>
	</g>
</g>
</svg>